<!--?xml version="1.0" encoding="utf-8"?-->
<!-- Generator: Adobe Illustrator 16.0.0, SVG Export Plug-In . SVG Version: 6.00 Build 0)  -->

<svg version="1.1" id="Layer_1" xmlns="http://www.w3.org/2000/svg" xmlns:xlink="http://www.w3.org/1999/xlink" x="0px" y="0px" width="786.199px" height="393.16px" viewBox="0 0 786.199 393.16" enable-background="new 0 0 786.199 393.16" xml:space="preserve" style="">
<path fill="#FFFFFF" stroke="#DEB887" stroke-width="4" stroke-miterlimit="10" d="M784.199,375.955
	c0,8.396-6.809,15.205-15.204,15.205H17.205C8.808,391.16,2,384.352,2,375.955V17.204C2,8.807,8.808,2,17.205,2h751.79
	c8.396,0,15.204,6.807,15.204,15.204V375.955z" class="bvCZqFuZ_0"></path>
<path fill="#FFFFFF" stroke="#B1B0B1" stroke-width="2" stroke-miterlimit="10" d="M746.705,339.824
	c0,7.645-6.452,13.842-14.413,13.842H55.199c-7.959,0-14.413-6.197-14.413-13.842V52.043c0-7.645,6.453-13.842,14.413-13.842
	h677.092c7.961,0,14.413,6.197,14.413,13.842L746.705,339.824L746.705,339.824z" class="bvCZqFuZ_1"></path>
<g>
	<path fill="#B1B0B1" d="M322.606,99.459V76.393h6.562c1.995,0,3.577,0.488,4.745,1.463c1.169,0.976,1.754,2.247,1.754,3.813
		c0,1.309-0.354,2.445-1.062,3.41c-0.709,0.965-1.685,1.651-2.929,2.059v0.064c1.556,0.183,2.799,0.77,3.732,1.761
		c0.933,0.992,1.398,2.282,1.398,3.869c0,1.973-0.708,3.571-2.124,4.793c-1.416,1.223-3.199,1.833-5.355,1.833L322.606,99.459
		L322.606,99.459z M325.308,78.838v7.448h2.768c1.479,0,2.644-0.356,3.491-1.07c0.847-0.713,1.271-1.719,1.271-3.015
		c0-2.242-1.475-3.362-4.423-3.362L325.308,78.838L325.308,78.838z M325.308,88.714v8.3h3.667c1.588,0,2.818-0.375,3.692-1.126
		c0.874-0.75,1.311-1.78,1.311-3.088c0-2.724-1.855-4.085-5.564-4.085L325.308,88.714L325.308,88.714z" class="bvCZqFuZ_2"></path>
	<path fill="#B1B0B1" d="M353.714,99.459H341.49V76.393h11.709v2.445h-9.008v7.673h8.333v2.429h-8.333v8.075h9.521L353.714,99.459
		L353.714,99.459z" class="bvCZqFuZ_3"></path>
	<path fill="#B1B0B1" d="M367.451,99.846c-3.271,0-5.89-1.079-7.857-3.234c-1.968-2.155-2.952-4.959-2.952-8.412
		c0-3.71,1.003-6.67,3.009-8.88c2.005-2.209,4.733-3.313,8.188-3.313c3.186,0,5.75,1.072,7.696,3.217
		c1.947,2.145,2.919,4.949,2.919,8.413c0,3.764-0.997,6.74-2.991,8.928C373.467,98.751,370.797,99.846,367.451,99.846z
		 M367.645,78.452c-2.423,0-4.392,0.874-5.903,2.623c-1.513,1.748-2.269,4.042-2.269,6.884s0.737,5.129,2.211,6.861
		c1.475,1.732,3.396,2.598,5.767,2.598c2.531,0,4.525-0.826,5.983-2.478c1.458-1.651,2.188-3.962,2.188-6.933
		c0-3.046-0.708-5.398-2.124-7.061C372.084,79.283,370.132,78.452,367.645,78.452z" class="bvCZqFuZ_4"></path>
	<path fill="#B1B0B1" d="M400.233,97.883c-2.316,1.309-4.891,1.963-7.721,1.963c-3.292,0-5.955-1.062-7.986-3.186
		c-2.032-2.123-3.049-4.932-3.049-8.429c0-3.571,1.129-6.501,3.386-8.791c2.258-2.29,5.118-3.434,8.582-3.434
		c2.51,0,4.617,0.407,6.32,1.223v2.992c-1.864-1.179-4.075-1.77-6.626-1.77c-2.584,0-4.702,0.89-6.354,2.67
		c-1.651,1.78-2.479,4.085-2.479,6.917c0,2.917,0.768,5.209,2.302,6.876c1.533,1.667,3.613,2.501,6.24,2.501
		c1.804,0,3.362-0.359,4.682-1.078v-6.466h-5.051v-2.445h7.753V97.883z" class="bvCZqFuZ_5"></path>
	<path fill="#B1B0B1" d="M422.125,99.459h-3.217l-3.86-6.466c-0.354-0.601-0.698-1.113-1.03-1.536
		c-0.332-0.424-0.673-0.77-1.021-1.038s-0.723-0.464-1.126-0.587c-0.401-0.123-0.854-0.185-1.359-0.185h-2.22v9.812h-2.701V76.393
		h6.884c1.008,0,1.938,0.126,2.791,0.378c0.854,0.252,1.593,0.635,2.222,1.15c0.626,0.515,1.116,1.156,1.471,1.922
		c0.354,0.767,0.53,1.665,0.53,2.694c0,0.804-0.12,1.542-0.36,2.211c-0.242,0.67-0.586,1.269-1.03,1.794
		c-0.443,0.524-0.981,0.973-1.607,1.342c-0.628,0.371-1.333,0.658-2.115,0.861v0.064c0.386,0.171,0.721,0.368,1.004,0.587
		c0.285,0.22,0.556,0.48,0.813,0.78c0.257,0.299,0.513,0.641,0.763,1.021c0.254,0.38,0.535,0.823,0.845,1.327L422.125,99.459z
		 M408.292,78.838v8.364h3.668c0.676,0,1.301-0.102,1.873-0.305c0.574-0.204,1.07-0.497,1.488-0.877
		c0.419-0.38,0.747-0.847,0.98-1.399c0.235-0.553,0.354-1.172,0.354-1.858c0-1.233-0.399-2.196-1.196-2.887
		c-0.8-0.692-1.956-1.038-3.468-1.038H408.292z" class="bvCZqFuZ_6"></path>
	<path fill="#B1B0B1" d="M443.149,99.459h-2.991l-2.446-6.466h-9.779l-2.3,6.466h-3.009l8.848-23.066h2.8L443.149,99.459z
		 M436.827,90.564l-3.618-9.829c-0.118-0.322-0.236-0.836-0.354-1.544h-0.064c-0.108,0.654-0.232,1.169-0.371,1.544l-3.587,9.829
		H436.827z" class="bvCZqFuZ_7"></path>
	<path fill="#B1B0B1" d="M446.543,99.459V76.393h6.37c8.129,0,12.19,3.748,12.19,11.244c0,3.56-1.128,6.42-3.386,8.582
		c-2.258,2.161-5.276,3.241-9.063,3.241L446.543,99.459L446.543,99.459z M449.245,78.838v18.176h3.442
		c3.023,0,5.378-0.81,7.062-2.429c1.685-1.619,2.525-3.914,2.525-6.884c0-5.909-3.144-8.863-9.427-8.863H449.245z" class="bvCZqFuZ_8"></path>
</g>
<g>
	<g>
		<path fill="none" stroke="#706F70" stroke-width="0.5" stroke-miterlimit="10" d="M172.389,188.897h-3.223l-2.633-6.963h-10.532
			l-2.478,6.963h-3.239l9.527-24.84h3.015L172.389,188.897z M165.581,179.318l-3.897-10.584c-0.128-0.347-0.255-0.901-0.382-1.663
			h-0.069c-0.116,0.705-0.249,1.259-0.398,1.663l-3.863,10.584H165.581z" class="bvCZqFuZ_9"></path>
		<path fill="none" stroke="#706F70" stroke-width="0.5" stroke-miterlimit="10" d="M173.311,189.531h-4.583l-2.633-6.964h-9.647
			l-2.477,6.964h-4.608l10.013-26.108h3.884L173.311,189.531z M169.604,188.265h1.861l-9.075-23.574h-2.144l-9.042,23.574h1.871
			l2.477-6.964h11.417L169.604,188.265z M166.489,179.952h-10.424l4.174-11.436c0.136-0.368,0.259-0.888,0.368-1.548l0.087-0.531
			h1.144l0.088,0.53c0.12,0.721,0.238,1.241,0.351,1.548L166.489,179.952z M157.877,178.684h6.795l-3.413-9.267L157.877,178.684z" class="bvCZqFuZ_10"></path>
	</g>
	<g>
		<path fill="none" stroke="#706F70" stroke-width="0.5" stroke-miterlimit="10" d="M178.705,188.897v-24.84h6.859
			c8.753,0,13.131,4.037,13.131,12.108c0,3.834-1.216,6.915-3.647,9.241c-2.431,2.328-5.685,3.491-9.761,3.491H178.705z
			 M181.614,166.69v19.575h3.708c3.257,0,5.791-0.872,7.604-2.616c1.813-1.743,2.72-4.215,2.72-7.414
			c0-6.363-3.384-9.545-10.151-9.545H181.614z" class="bvCZqFuZ_11"></path>
		<path fill="none" stroke="#706F70" stroke-width="0.5" stroke-miterlimit="10" d="M185.287,189.531h-7.216v-26.108h7.493
			c9.133,0,13.765,4.287,13.765,12.742c0,3.996-1.293,7.259-3.842,9.699C192.945,188.298,189.513,189.531,185.287,189.531z
			 M179.337,188.265h5.949c3.89,0,7.026-1.116,9.324-3.315c2.29-2.192,3.451-5.147,3.451-8.784c0-7.722-4.087-11.475-12.497-11.475
			h-6.227V188.265L179.337,188.265z M185.322,186.898h-4.341v-20.842h4.514c7.156,0,10.785,3.424,10.785,10.178
			c0,3.363-0.981,6.011-2.914,7.871C191.439,185.958,188.732,186.898,185.322,186.898z M182.248,185.631h3.074
			c3.072,0,5.482-0.82,7.165-2.438c1.676-1.612,2.525-3.953,2.525-6.958c0-5.996-3.113-8.911-9.518-8.911h-3.247L182.248,185.631
			L182.248,185.631z" class="bvCZqFuZ_12"></path>
	</g>
	<g>
		<path fill="none" stroke="#706F70" stroke-width="0.5" stroke-miterlimit="10" d="M224.707,164.057l-9.199,24.84h-3.204
			l-9.008-24.84h3.239l6.878,19.696c0.219,0.635,0.387,1.368,0.501,2.2h0.07c0.092-0.693,0.283-1.438,0.572-2.234l7.015-19.662
			H224.707z" class="bvCZqFuZ_13"></path>
		<path fill="none" stroke="#706F70" stroke-width="0.5" stroke-miterlimit="10" d="M215.949,189.531h-4.09l-9.467-26.108h4.593
			l6.994,20.028l7.146-20.028h4.493L215.949,189.531z M212.748,188.265h2.319l8.729-23.574h-1.778l-6.867,19.241
			c-0.272,0.753-0.454,1.46-0.54,2.105l-0.073,0.55h-1.106l-0.145-0.546c-0.109-0.786-0.27-1.486-0.474-2.081l-6.728-19.269h-1.886
			L212.748,188.265z" class="bvCZqFuZ_14"></path>
	</g>
	<g>
		<path fill="none" stroke="#706F70" stroke-width="0.5" stroke-miterlimit="10" d="M240.948,189.313
			c-3.523,0-6.344-1.161-8.462-3.482c-2.12-2.322-3.179-5.341-3.179-9.06c0-3.996,1.08-7.183,3.239-9.562
			c2.159-2.379,5.098-3.569,8.817-3.569c3.43,0,6.192,1.155,8.289,3.464c2.097,2.311,3.145,5.33,3.145,9.06
			c0,4.054-1.074,7.258-3.223,9.614C247.427,188.136,244.551,189.313,240.948,189.313z M241.155,166.274
			c-2.61,0-4.729,0.941-6.357,2.824c-1.628,1.883-2.442,4.354-2.442,7.414c0,3.061,0.793,5.524,2.382,7.389
			c1.588,1.865,3.657,2.797,6.21,2.797c2.725,0,4.874-0.889,6.444-2.668c1.57-1.778,2.356-4.267,2.356-7.465
			c0-3.28-0.762-5.815-2.286-7.605C245.937,167.17,243.834,166.274,241.155,166.274z" class="bvCZqFuZ_15"></path>
		<path fill="none" stroke="#706F70" stroke-width="0.5" stroke-miterlimit="10" d="M240.948,189.947
			c-3.691,0-6.696-1.241-8.93-3.688c-2.219-2.43-3.345-5.622-3.345-9.486c0-4.14,1.145-7.5,3.404-9.988
			c2.274-2.506,5.398-3.777,9.286-3.777c3.6,0,6.546,1.236,8.757,3.672c2.196,2.42,3.309,5.611,3.309,9.486
			c0,4.198-1.14,7.576-3.387,10.041C247.78,188.688,244.72,189.947,240.948,189.947z M241.364,164.274
			c-3.515,0-6.324,1.131-8.349,3.361c-2.04,2.248-3.075,5.321-3.075,9.136c0,3.539,1.014,6.443,3.013,8.633
			c2.013,2.203,4.627,3.275,7.995,3.275c3.448,0,6.117-1.088,8.159-3.327c2.028-2.225,3.057-5.316,3.057-9.188
			c0-3.55-1.002-6.455-2.979-8.634C247.194,165.34,244.636,164.274,241.364,164.274z M240.948,187.331
			c-2.735,0-4.987-1.017-6.692-3.021c-1.681-1.973-2.533-4.597-2.533-7.799c0-3.202,0.873-5.836,2.597-7.828
			c1.747-2.019,4.047-3.043,6.836-3.043c2.861,0,5.144,0.978,6.788,2.908c1.617,1.9,2.438,4.597,2.438,8.016
			c0,3.342-0.846,5.996-2.514,7.885C246.178,186.362,243.85,187.331,240.948,187.331z M241.155,166.908
			c-2.439,0-4.362,0.852-5.878,2.604c-1.518,1.755-2.287,4.11-2.287,7c0,2.892,0.75,5.24,2.23,6.978
			c1.475,1.732,3.348,2.575,5.728,2.575c2.559,0,4.512-0.803,5.969-2.454c1.458-1.651,2.197-4.021,2.197-7.046
			c0-3.11-0.718-5.53-2.135-7.194C245.568,167.713,243.663,166.908,241.155,166.908z" class="bvCZqFuZ_16"></path>
	</g>
	<g>
		<path fill="none" stroke="#706F70" stroke-width="0.5" stroke-miterlimit="10" d="M277.631,188.897h-4.054l-9.596-11.363
			c-0.358-0.427-0.579-0.716-0.659-0.866h-0.069v12.229h-2.91v-24.84h2.91v11.675h0.069c0.161-0.254,0.381-0.537,0.659-0.849
			l9.284-10.826h3.621l-10.654,11.917L277.631,188.897z" class="bvCZqFuZ_17"></path>
		<path fill="none" stroke="#706F70" stroke-width="0.5" stroke-miterlimit="10" d="M279.034,189.531h-5.752l-9.396-11.127v11.127
			h-4.177v-26.108h4.177v10.597l9.087-10.597h5.329l-11.223,12.555L279.034,189.531z M273.871,188.265h2.355l-10.841-12.292
			l10.084-11.282h-1.913l-9.096,10.605c-0.26,0.294-0.461,0.552-0.604,0.777l-0.09,0.142l0.115,0.155
			c0.021,0.039,0.125,0.209,0.584,0.758L273.871,188.265z M260.976,188.265h1.643V164.69h-1.643V188.265z" class="bvCZqFuZ_18"></path>
	</g>
	<g>
		<path fill="none" stroke="#706F70" stroke-width="0.5" stroke-miterlimit="10" d="M302.811,188.897h-3.222l-2.633-6.963h-10.532
			l-2.477,6.963h-3.24l9.528-24.84h3.015L302.811,188.897z M296.003,179.318l-3.898-10.584c-0.127-0.347-0.254-0.901-0.381-1.663
			h-0.069c-0.115,0.705-0.248,1.259-0.398,1.663l-3.863,10.584H296.003z" class="bvCZqFuZ_19"></path>
		<path fill="none" stroke="#706F70" stroke-width="0.5" stroke-miterlimit="10" d="M303.733,189.531h-4.582l-2.633-6.964h-9.647
			l-2.478,6.964h-4.607l10.013-26.108h3.885L303.733,189.531z M300.026,188.265h1.862l-9.075-23.574h-2.143l-9.042,23.574h1.871
			l2.478-6.964h11.417L300.026,188.265z M296.911,179.952h-10.423l4.173-11.436c0.137-0.368,0.26-0.888,0.369-1.548l0.086-0.531
			h1.145l0.088,0.53c0.12,0.721,0.238,1.241,0.351,1.548L296.911,179.952z M288.299,178.684h6.795l-3.413-9.267L288.299,178.684z" class="bvCZqFuZ_20"></path>
	</g>
	<g>
		<path fill="none" stroke="#706F70" stroke-width="0.5" stroke-miterlimit="10" d="M323.817,166.69h-7.173v22.208h-2.909V166.69
			h-7.154v-2.633h17.236V166.69z" class="bvCZqFuZ_21"></path>
		<path fill="none" stroke="#706F70" stroke-width="0.5" stroke-miterlimit="10" d="M317.278,189.531h-4.178v-22.208h-7.153v-3.9
			h18.503v3.9h-7.171L317.278,189.531L317.278,189.531z M314.368,188.265h1.643v-22.208h7.172v-1.366h-15.969v1.366h7.154V188.265z" class="bvCZqFuZ_22"></path>
	</g>
	<g>
		<path fill="none" stroke="#706F70" stroke-width="0.5" stroke-miterlimit="10" d="M329.214,187.893v-3.429
			c0.393,0.346,0.863,0.658,1.412,0.935s1.126,0.511,1.733,0.701c0.605,0.191,1.215,0.338,1.826,0.442
			c0.612,0.104,1.179,0.156,1.697,0.156c1.79,0,3.127-0.332,4.011-0.996s1.325-1.619,1.325-2.867c0-0.67-0.146-1.253-0.44-1.75
			c-0.294-0.496-0.702-0.949-1.223-1.36c-0.519-0.41-1.134-0.802-1.844-1.178c-0.71-0.375-1.476-0.771-2.295-1.187
			c-0.866-0.438-1.674-0.884-2.425-1.333c-0.751-0.451-1.403-0.947-1.958-1.49c-0.554-0.542-0.991-1.158-1.309-1.845
			c-0.316-0.687-0.477-1.493-0.477-2.417c0-1.132,0.249-2.116,0.745-2.953c0.497-0.838,1.148-1.527,1.958-2.07
			c0.808-0.543,1.729-0.947,2.763-1.213c1.033-0.266,2.087-0.398,3.162-0.398c2.448,0,4.232,0.295,5.352,0.883v3.274
			c-1.467-1.017-3.349-1.524-5.646-1.524c-0.636,0-1.271,0.067-1.906,0.199c-0.635,0.133-1.201,0.35-1.697,0.65
			c-0.497,0.301-0.9,0.688-1.213,1.161c-0.312,0.474-0.467,1.051-0.467,1.732c0,0.636,0.118,1.184,0.355,1.646
			c0.236,0.462,0.586,0.883,1.048,1.265c0.462,0.382,1.024,0.751,1.688,1.108c0.664,0.358,1.43,0.751,2.295,1.178
			c0.89,0.439,1.733,0.901,2.529,1.386c0.797,0.485,1.495,1.022,2.096,1.611s1.077,1.241,1.43,1.957
			c0.352,0.716,0.527,1.536,0.527,2.46c0,1.224-0.239,2.26-0.719,3.109s-1.126,1.539-1.939,2.07
			c-0.813,0.531-1.752,0.916-2.815,1.152c-1.063,0.236-2.183,0.355-3.36,0.355c-0.393,0-0.878-0.033-1.454-0.095
			c-0.578-0.064-1.168-0.156-1.769-0.277c-0.6-0.122-1.169-0.271-1.706-0.451C329.968,188.312,329.538,188.113,329.214,187.893z" class="bvCZqFuZ_23"></path>
		<path fill="none" stroke="#706F70" stroke-width="0.5" stroke-miterlimit="10" d="M335.433,189.947
			c-0.41,0-0.919-0.033-1.522-0.098c-0.597-0.066-1.205-0.162-1.824-0.287c-0.625-0.126-1.226-0.284-1.781-0.47
			c-0.599-0.199-1.071-0.42-1.446-0.674l-0.277-0.189v-5.17l1.054,0.931c0.35,0.309,0.779,0.592,1.277,0.844
			c0.514,0.26,1.064,0.483,1.637,0.663c0.577,0.181,1.162,0.323,1.743,0.421c0.574,0.098,1.109,0.148,1.591,0.148
			c1.644,0,2.863-0.292,3.63-0.869c0.723-0.542,1.072-1.314,1.072-2.36c0-0.56-0.115-1.026-0.353-1.427
			c-0.254-0.427-0.613-0.826-1.069-1.186c-0.488-0.384-1.076-0.76-1.749-1.115c-0.707-0.374-1.469-0.767-2.285-1.182
			c-0.875-0.443-1.705-0.899-2.465-1.355c-0.79-0.475-1.487-1.005-2.075-1.581c-0.606-0.594-1.091-1.277-1.438-2.031
			c-0.355-0.766-0.535-1.669-0.535-2.682c0-1.242,0.279-2.344,0.833-3.276c0.542-0.915,1.266-1.679,2.148-2.273
			c0.864-0.579,1.858-1.017,2.958-1.3c1.081-0.278,2.198-0.419,3.32-0.419c2.576,0,4.423,0.313,5.647,0.957l0.339,0.178v4.866
			l-0.995-0.688c-1.353-0.936-3.131-1.412-5.286-1.412c-0.587,0-1.186,0.063-1.776,0.186c-0.563,0.118-1.066,0.311-1.499,0.571
			c-0.419,0.253-0.75,0.57-1.012,0.967c-0.244,0.371-0.363,0.824-0.363,1.383c0,0.532,0.097,0.988,0.285,1.356
			c0.195,0.383,0.494,0.742,0.887,1.066c0.43,0.354,0.964,0.704,1.586,1.039c0.659,0.356,1.418,0.745,2.275,1.168
			c0.907,0.448,1.774,0.923,2.579,1.413c0.833,0.508,1.577,1.08,2.21,1.7c0.648,0.636,1.171,1.354,1.553,2.129
			c0.395,0.802,0.595,1.724,0.595,2.74c0,1.328-0.27,2.479-0.802,3.42c-0.527,0.936-1.25,1.706-2.146,2.29
			c-0.874,0.57-1.893,0.988-3.023,1.24C337.826,189.822,336.649,189.947,335.433,189.947z M329.848,187.535
			c0.235,0.124,0.522,0.244,0.857,0.354c0.508,0.17,1.056,0.315,1.632,0.431c0.582,0.118,1.151,0.206,1.71,0.268
			c0.549,0.061,1.012,0.092,1.386,0.092c1.125,0,2.209-0.115,3.225-0.34c0.981-0.219,1.858-0.577,2.605-1.064
			c0.726-0.472,1.309-1.094,1.734-1.852c0.423-0.748,0.637-1.69,0.637-2.797c0-0.821-0.156-1.555-0.463-2.18
			c-0.319-0.648-0.758-1.25-1.304-1.785c-0.564-0.553-1.231-1.065-1.981-1.522c-0.772-0.471-1.607-0.928-2.48-1.359
			c-0.873-0.431-1.646-0.827-2.315-1.188c-0.696-0.375-1.299-0.771-1.792-1.177c-0.527-0.436-0.934-0.928-1.209-1.465
			c-0.281-0.547-0.424-1.2-0.424-1.934c0-0.804,0.192-1.503,0.572-2.081c0.361-0.55,0.838-1.005,1.413-1.354
			c0.556-0.336,1.192-0.58,1.896-0.728c0.677-0.141,1.362-0.213,2.036-0.213c1.935,0,3.615,0.353,5.014,1.05v-1.763
			c-1.043-0.434-2.628-0.653-4.719-0.653c-1.015,0-2.026,0.128-3.003,0.379c-0.961,0.247-1.824,0.625-2.568,1.125
			c-0.727,0.488-1.32,1.116-1.765,1.868c-0.437,0.734-0.657,1.619-0.657,2.63c0,0.828,0.142,1.552,0.417,2.151
			c0.285,0.613,0.68,1.171,1.176,1.658c0.517,0.506,1.137,0.976,1.842,1.399c0.734,0.441,1.536,0.882,2.386,1.312
			c0.823,0.418,1.591,0.816,2.305,1.191c0.74,0.392,1.394,0.809,1.94,1.241c0.579,0.456,1.041,0.972,1.375,1.533
			c0.353,0.594,0.53,1.292,0.53,2.074c0,1.451-0.53,2.586-1.578,3.374c-1.006,0.755-2.441,1.123-4.392,1.123
			c-0.553,0-1.16-0.056-1.803-0.164c-0.637-0.108-1.281-0.264-1.912-0.462c-0.637-0.201-1.253-0.45-1.828-0.741
			c-0.17-0.086-0.335-0.176-0.492-0.269v1.838H329.848z" class="bvCZqFuZ_24"></path>
	</g>
	<g>
		<path fill="none" stroke="#706F70" stroke-width="0.5" stroke-miterlimit="10" d="M369.17,188.897h-4.054l-9.597-11.363
			c-0.358-0.427-0.578-0.716-0.658-0.866h-0.069v12.229h-2.91v-24.84h2.91v11.675h0.069c0.162-0.254,0.381-0.537,0.658-0.849
			l9.284-10.826h3.621l-10.652,11.917L369.17,188.897z" class="bvCZqFuZ_25"></path>
		<path fill="none" stroke="#706F70" stroke-width="0.5" stroke-miterlimit="10" d="M370.574,189.531h-5.751l-9.396-11.127v11.127
			h-4.177v-26.108h4.177v10.597l9.087-10.597h5.328l-11.223,12.555L370.574,189.531z M365.412,188.265h2.354l-10.841-12.292
			l10.084-11.282h-1.912l-9.096,10.605c-0.261,0.294-0.462,0.552-0.604,0.777l-0.092,0.142l0.115,0.155
			c0.021,0.039,0.125,0.209,0.584,0.758L365.412,188.265z M352.516,188.265h1.645V164.69h-1.645V188.265z" class="bvCZqFuZ_26"></path>
	</g>
	<g>
		<path fill="none" stroke="#706F70" stroke-width="0.5" stroke-miterlimit="10" d="M394.35,188.897h-3.221l-2.633-6.963h-10.533
			l-2.477,6.963h-3.239l9.528-24.84h3.014L394.35,188.897z M387.543,179.318l-3.896-10.584c-0.129-0.347-0.256-0.901-0.382-1.663
			h-0.069c-0.115,0.705-0.249,1.259-0.398,1.663l-3.863,10.584H387.543z" class="bvCZqFuZ_27"></path>
		<path fill="none" stroke="#706F70" stroke-width="0.5" stroke-miterlimit="10" d="M395.274,189.531h-4.583l-2.634-6.964h-9.646
			l-2.479,6.964h-4.607l10.014-26.108h3.884L395.274,189.531z M391.567,188.265h1.861l-9.075-23.574h-2.144l-9.042,23.574h1.872
			l2.477-6.964h11.417L391.567,188.265z M388.451,179.952h-10.423l4.173-11.436c0.137-0.368,0.26-0.888,0.369-1.548l0.086-0.531
			h1.145l0.087,0.53c0.12,0.721,0.238,1.241,0.352,1.548L388.451,179.952z M379.839,178.684h6.795l-3.413-9.267L379.839,178.684z" class="bvCZqFuZ_28"></path>
	</g>
	<g>
		<path fill="none" stroke="#706F70" stroke-width="0.5" stroke-miterlimit="10" d="M430.334,188.897h-4.054l-9.598-11.363
			c-0.358-0.427-0.578-0.716-0.657-0.866h-0.069v12.229h-2.911v-24.84h2.911v11.675h0.069c0.16-0.254,0.381-0.537,0.657-0.849
			l9.285-10.826h3.62l-10.652,11.917L430.334,188.897z" class="bvCZqFuZ_29"></path>
		<path fill="none" stroke="#706F70" stroke-width="0.5" stroke-miterlimit="10" d="M431.737,189.531h-5.751l-9.396-11.127v11.127
			h-4.179v-26.108h4.179v10.597l9.088-10.597h5.326l-11.222,12.555L431.737,189.531z M426.575,188.265h2.354l-10.843-12.292
			l10.087-11.282h-1.915l-9.095,10.605c-0.264,0.295-0.464,0.554-0.605,0.776l-0.089,0.143l0.113,0.154
			c0.016,0.028,0.115,0.198,0.585,0.757L426.575,188.265z M413.679,188.265h1.644V164.69h-1.644V188.265z" class="bvCZqFuZ_30"></path>
	</g>
	<g>
		<path fill="none" stroke="#706F70" stroke-width="0.5" stroke-miterlimit="10" d="M455.513,188.897h-3.222l-2.634-6.963h-10.531
			l-2.478,6.963h-3.238l9.525-24.84h3.016L455.513,188.897z M448.706,179.318l-3.897-10.584c-0.126-0.347-0.254-0.901-0.381-1.663
			h-0.068c-0.114,0.705-0.247,1.259-0.399,1.663l-3.862,10.584H448.706z" class="bvCZqFuZ_31"></path>
		<path fill="none" stroke="#706F70" stroke-width="0.5" stroke-miterlimit="10" d="M456.438,189.531h-4.585l-2.633-6.964h-9.646
			l-2.479,6.964h-4.607l10.014-26.108h3.886L456.438,189.531z M452.73,188.265h1.859l-9.074-23.574h-2.143l-9.042,23.574h1.87
			l2.479-6.964h11.416L452.73,188.265z M449.614,179.952H439.19l4.175-11.436c0.136-0.366,0.26-0.885,0.368-1.547l0.088-0.532h1.144
			l0.088,0.529c0.148,0.895,0.273,1.337,0.352,1.551L449.614,179.952z M441.002,178.684h6.795l-3.412-9.267L441.002,178.684z" class="bvCZqFuZ_32"></path>
	</g>
	<g>
		<path fill="none" stroke="#706F70" stroke-width="0.5" stroke-miterlimit="10" d="M481.855,188.897h-3.569l-12.784-19.799
			c-0.323-0.497-0.588-1.016-0.797-1.56h-0.104c0.093,0.532,0.139,1.669,0.139,3.413v17.946h-2.909v-24.84h3.776l12.438,19.488
			c0.521,0.808,0.854,1.362,1.004,1.663h0.069c-0.115-0.716-0.173-1.935-0.173-3.656v-17.496h2.911V188.897z" class="bvCZqFuZ_33"></path>
		<path fill="none" stroke="#706F70" stroke-width="0.5" stroke-miterlimit="10" d="M482.487,189.531h-4.547l-12.573-19.472
			c0.006,0.278,0.007,0.575,0.007,0.892v18.58h-4.178v-26.108h4.758l12.368,19.381c-0.007-0.383-0.013-0.799-0.013-1.251v-18.129
			h4.178V189.531z M478.631,188.265h2.589V164.69h-1.644v16.862c0,1.677,0.057,2.873,0.167,3.555l0.117,0.734h-1.137l-0.243-0.351
			c-0.139-0.275-0.465-0.814-0.972-1.604l-12.253-19.197h-2.794v23.574h1.644v-17.313c0-2.119-0.07-2.967-0.13-3.304l-0.13-0.743
			h1.189l0.26,0.407c0.19,0.498,0.438,0.982,0.736,1.44L478.631,188.265z" class="bvCZqFuZ_34"></path>
	</g>
	<g>
		<path fill="none" stroke="#706F70" stroke-width="0.5" stroke-miterlimit="10" d="M507.936,187.858
			c-1.837,0.97-4.122,1.455-6.859,1.455c-3.534,0-6.363-1.137-8.488-3.413c-2.123-2.275-3.187-5.26-3.187-8.956
			c0-3.973,1.193-7.183,3.586-9.632c2.391-2.448,5.421-3.672,9.094-3.672c2.355,0,4.308,0.341,5.854,1.022v3.101
			c-1.778-0.993-3.741-1.49-5.891-1.49c-2.852,0-5.164,0.953-6.937,2.858c-1.773,1.906-2.66,4.452-2.66,7.64
			c0,3.026,0.828,5.437,2.485,7.232s3.83,2.693,6.522,2.693c2.493,0,4.652-0.554,6.479-1.663L507.936,187.858L507.936,187.858z" class="bvCZqFuZ_35"></path>
		<path fill="none" stroke="#706F70" stroke-width="0.5" stroke-miterlimit="10" d="M501.076,189.947c-3.7,0-6.712-1.215-8.95-3.614
			c-2.229-2.385-3.359-5.544-3.359-9.388c0-4.125,1.269-7.515,3.769-10.074c2.503-2.564,5.715-3.864,9.547-3.864
			c2.433,0,4.487,0.363,6.11,1.076l0.378,0.167v4.594l-0.941-0.526c-1.676-0.936-3.554-1.41-5.582-1.41
			c-2.692,0-4.813,0.869-6.473,2.656c-1.652,1.775-2.489,4.201-2.489,7.208c0,2.849,0.779,5.137,2.317,6.802
			c1.546,1.676,3.526,2.49,6.057,2.49c2.364,0,4.434-0.529,6.15-1.571l0.961-0.584v4.331l-0.338,0.179
			C506.313,189.433,503.905,189.947,501.076,189.947z M502.081,164.274c-3.479,0-6.385,1.171-8.642,3.481
			c-2.259,2.316-3.405,5.407-3.405,9.19c0,3.512,1.016,6.379,3.018,8.523c1.989,2.131,4.689,3.212,8.024,3.212
			c2.454,0,4.545-0.408,6.228-1.212v-1.37c-1.708,0.819-3.669,1.233-5.846,1.233c-2.863,0-5.215-0.975-6.986-2.897
			c-1.763-1.906-2.654-4.484-2.654-7.662c0-3.338,0.949-6.054,2.827-8.071c1.89-2.031,4.38-3.06,7.401-3.06
			c1.877,0,3.64,0.368,5.258,1.096v-1.649C505.9,164.548,504.146,164.274,502.081,164.274z" class="bvCZqFuZ_36"></path>
	</g>
	<g>
		<path fill="none" stroke="#706F70" stroke-width="0.5" stroke-miterlimit="10" d="M528.821,188.897h-13.164v-24.84h12.608v2.633
			h-9.699v8.263h8.973v2.616h-8.973v8.696h10.255V188.897z" class="bvCZqFuZ_37"></path>
		<path fill="none" stroke="#706F70" stroke-width="0.5" stroke-miterlimit="10" d="M529.454,189.531h-14.433v-26.108h13.88v3.9
			H519.2v6.996h8.973v3.883H519.2v7.429h10.254V189.531L529.454,189.531z M516.29,188.265h11.897v-1.366h-10.256v-9.963h8.975
			v-1.349h-8.975v-9.53h9.7v-1.366H516.29V188.265z" class="bvCZqFuZ_38"></path>
	</g>
	<g>
		<path fill="none" stroke="#706F70" stroke-width="0.5" stroke-miterlimit="10" d="M549.15,188.897h-12.889v-24.84h2.91v22.208
			h9.979V188.897z" class="bvCZqFuZ_39"></path>
		<path fill="none" stroke="#706F70" stroke-width="0.5" stroke-miterlimit="10" d="M549.785,189.531H535.63v-26.108h4.177v22.208
			h9.979L549.785,189.531L549.785,189.531z M536.896,188.265h11.62v-1.366h-9.979V164.69h-1.643L536.896,188.265L536.896,188.265z" class="bvCZqFuZ_40"></path>
	</g>
	<g>
		<path fill="none" stroke="#706F70" stroke-width="0.5" stroke-miterlimit="10" d="M574.849,188.897h-3.222l-2.632-6.963h-10.532
			l-2.477,6.963h-3.241l9.526-24.84h3.016L574.849,188.897z M568.042,179.318l-3.896-10.584c-0.128-0.347-0.254-0.901-0.383-1.663
			h-0.068c-0.115,0.705-0.247,1.259-0.397,1.663l-3.862,10.584H568.042z" class="bvCZqFuZ_41"></path>
		<path fill="none" stroke="#706F70" stroke-width="0.5" stroke-miterlimit="10" d="M575.773,189.531h-4.582l-2.635-6.964h-9.647
			l-2.478,6.964h-4.607l10.015-26.108h3.886L575.773,189.531z M572.066,188.265h1.859l-9.074-23.574h-2.143l-9.041,23.574h1.871
			l2.477-6.964h11.418L572.066,188.265z M568.951,179.952h-10.423l4.172-11.436c0.139-0.366,0.261-0.885,0.37-1.547l0.086-0.532
			h1.144l0.089,0.529c0.149,0.895,0.274,1.337,0.352,1.551L568.951,179.952z M560.337,178.684h6.796l-3.412-9.267L560.337,178.684z" class="bvCZqFuZ_42"></path>
	</g>
	<g>
		<path fill="none" stroke="#706F70" stroke-width="0.5" stroke-miterlimit="10" d="M598.973,188.897h-3.464l-4.158-6.963
			c-0.382-0.647-0.75-1.198-1.108-1.654c-0.357-0.456-0.726-0.829-1.099-1.117c-0.376-0.289-0.779-0.499-1.213-0.633
			c-0.433-0.132-0.923-0.199-1.466-0.199h-2.391v10.566h-2.91v-24.84h7.415c1.087,0,2.088,0.136,3.006,0.407
			c0.918,0.272,1.716,0.685,2.392,1.239c0.676,0.555,1.202,1.245,1.583,2.07c0.382,0.826,0.572,1.793,0.572,2.902
			c0,0.866-0.129,1.66-0.389,2.382c-0.261,0.722-0.631,1.366-1.108,1.931c-0.479,0.566-1.058,1.048-1.731,1.447
			c-0.677,0.398-1.437,0.708-2.279,0.927v0.069c0.416,0.185,0.777,0.396,1.084,0.632c0.305,0.237,0.596,0.518,0.874,0.84
			c0.276,0.323,0.551,0.691,0.824,1.101c0.27,0.41,0.573,0.886,0.907,1.428L598.973,188.897z M584.075,166.69v9.008h3.95
			c0.728,0,1.399-0.109,2.02-0.329c0.616-0.219,1.15-0.534,1.6-0.944c0.452-0.41,0.805-0.911,1.06-1.507
			c0.255-0.595,0.38-1.262,0.38-2c0-1.328-0.431-2.364-1.289-3.11c-0.859-0.745-2.104-1.117-3.732-1.117L584.075,166.69
			L584.075,166.69z" class="bvCZqFuZ_43"></path>
		<path fill="none" stroke="#706F70" stroke-width="0.5" stroke-miterlimit="10" d="M600.116,189.531h-4.968l-4.342-7.272
			c-0.369-0.626-0.726-1.159-1.063-1.587c-0.321-0.411-0.653-0.75-0.987-1.008c-0.317-0.243-0.649-0.417-1.012-0.528
			c-0.372-0.113-0.802-0.172-1.279-0.172h-1.757v10.567h-4.177v-26.108h8.048c1.142,0,2.212,0.145,3.186,0.433
			c0.996,0.294,1.875,0.751,2.614,1.356c0.744,0.612,1.336,1.384,1.757,2.295c0.418,0.906,0.629,1.971,0.629,3.167
			c0,0.938-0.144,1.812-0.425,2.596c-0.283,0.787-0.693,1.502-1.222,2.126c-0.524,0.619-1.161,1.151-1.895,1.583
			c-0.36,0.212-0.743,0.402-1.147,0.567c0.006,0.005,0.012,0.009,0.018,0.015c0.341,0.265,0.665,0.577,0.969,0.929
			c0.292,0.341,0.585,0.731,0.869,1.161c0.274,0.418,0.583,0.899,0.922,1.448L600.116,189.531z M595.869,188.265h1.962l-4.054-6.498
			c-0.333-0.54-0.635-1.011-0.902-1.417c-0.254-0.384-0.513-0.73-0.775-1.036c-0.244-0.287-0.509-0.541-0.781-0.752
			c-0.264-0.203-0.583-0.39-0.951-0.553l-0.376-0.167v-0.902l0.474-0.192c0.783-0.203,1.496-0.491,2.118-0.859
			c0.61-0.36,1.138-0.8,1.57-1.31c0.43-0.507,0.764-1.092,0.995-1.736c0.232-0.646,0.353-1.376,0.353-2.167
			c0-1.011-0.175-1.898-0.514-2.636c-0.339-0.736-0.814-1.357-1.411-1.846c-0.606-0.498-1.335-0.875-2.168-1.121
			c-0.857-0.253-1.808-0.381-2.827-0.381h-6.78v23.574h1.645v-10.567h3.021c0.604,0,1.158,0.076,1.651,0.228
			c0.502,0.154,0.978,0.401,1.411,0.734c0.42,0.324,0.825,0.737,1.214,1.229c0.37,0.473,0.76,1.053,1.153,1.724L595.869,188.265z
			 M588.025,176.332h-4.582v-10.275h4.617c1.775,0,3.172,0.428,4.147,1.272c1.001,0.868,1.509,2.075,1.509,3.588
			c0,0.824-0.146,1.581-0.433,2.25c-0.288,0.675-0.696,1.256-1.213,1.727c-0.511,0.464-1.122,0.826-1.816,1.072
			C589.573,176.208,588.821,176.332,588.025,176.332z M584.708,175.064h3.316c0.651,0,1.261-0.099,1.809-0.292
			c0.534-0.19,1.001-0.464,1.385-0.816c0.382-0.347,0.686-0.779,0.901-1.287c0.219-0.513,0.329-1.102,0.329-1.752
			c0-1.146-0.351-2.006-1.069-2.631c-0.738-0.639-1.855-0.962-3.318-0.962h-3.353V175.064L584.708,175.064z" class="bvCZqFuZ_44"></path>
	</g>
	<g>
		<path fill="none" stroke="#706F70" stroke-width="0.5" stroke-miterlimit="10" d="M610.383,164.057v2.495h-2.427v19.851h2.427
			v2.495h-7.762v-2.495h2.426v-19.851h-2.426v-2.495H610.383z" class="bvCZqFuZ_45"></path>
		<path fill="none" stroke="#706F70" stroke-width="0.5" stroke-miterlimit="10" d="M611.016,189.531h-9.027v-3.761h2.426v-18.585
			h-2.426v-3.761h9.027v3.761h-2.425v18.585h2.425V189.531z M603.255,188.265h6.493v-1.228h-2.425v-21.119h2.425v-1.228h-6.493
			v1.228h2.425v21.119h-2.425V188.265z" class="bvCZqFuZ_46"></path>
	</g>
	<g>
		<path fill="none" stroke="#706F70" stroke-width="0.5" stroke-miterlimit="10" d="M623.506,179.994
			c0,2.945-0.624,5.234-1.87,6.869c-1.247,1.634-2.918,2.451-5.007,2.451c-0.971,0-1.767-0.139-2.391-0.416v-2.875
			c0.624,0.451,1.431,0.676,2.426,0.676c2.62,0,3.933-2.223,3.933-6.669v-15.972h2.909V179.994z" class="bvCZqFuZ_47"></path>
		<path fill="none" stroke="#706F70" stroke-width="0.5" stroke-miterlimit="10" d="M616.629,189.947
			c-1.054,0-1.945-0.158-2.646-0.47l-0.377-0.168v-4.525l1.006,0.725c0.51,0.369,1.201,0.556,2.054,0.556
			c0.815,0,3.299,0,3.299-6.036v-16.605h4.178v16.57c0,3.073-0.673,5.514-2.001,7.253
			C620.771,189.038,618.918,189.947,616.629,189.947z M614.873,188.458c0.482,0.148,1.072,0.223,1.757,0.223
			c1.899,0,3.372-0.721,4.503-2.202c1.156-1.514,1.741-3.695,1.741-6.484V164.69h-1.644v15.338c0,4.846-1.535,7.302-4.565,7.302
			c-0.663,0-1.263-0.093-1.792-0.278V188.458L614.873,188.458z" class="bvCZqFuZ_48"></path>
	</g>
	<g>
		<path fill="none" stroke="#706F70" stroke-width="0.5" stroke-miterlimit="10" d="M651.701,188.897h-3.224l-2.632-6.963h-10.533
			l-2.478,6.963h-3.238l9.527-24.84h3.015L651.701,188.897z M644.893,179.318l-3.896-10.584c-0.127-0.347-0.256-0.901-0.381-1.663
			h-0.07c-0.115,0.705-0.247,1.259-0.396,1.663l-3.864,10.584H644.893z" class="bvCZqFuZ_49"></path>
		<path fill="none" stroke="#706F70" stroke-width="0.5" stroke-miterlimit="10" d="M652.625,189.531h-4.585l-2.632-6.964h-9.647
			l-2.478,6.964h-4.607l10.014-26.108h3.886L652.625,189.531z M648.917,188.265h1.86l-9.075-23.574h-2.144l-9.042,23.574h1.87
			l2.479-6.964h11.415L648.917,188.265z M645.801,179.952h-10.424l4.174-11.436c0.135-0.365,0.259-0.885,0.368-1.548l0.089-0.531
			h1.144l0.089,0.531c0.146,0.893,0.271,1.334,0.351,1.547L645.801,179.952z M637.189,178.684h6.795l-3.412-9.267L637.189,178.684z" class="bvCZqFuZ_50"></path>
	</g>
	<g>
		<path fill="none" stroke="#706F70" stroke-width="0.5" stroke-miterlimit="10" d="M354.508,231.471v-11.104h-2.771v-2.687h2.771
			v-11.05h6.86c8.753,0,13.13,4.035,13.13,12.107c0,3.857-1.219,6.946-3.655,9.268c-2.437,2.311-5.688,3.466-9.753,3.466H354.508z
			 M357.418,209.261v8.42h5.821v2.688h-5.821v8.469h3.708c3.257,0,5.792-0.871,7.604-2.614s2.719-4.214,2.719-7.415
			c0-6.362-3.384-9.545-10.15-9.545h-3.881V209.261z" class="bvCZqFuZ_51"></path>
		<path fill="none" stroke="#706F70" stroke-width="0.5" stroke-miterlimit="10" d="M361.091,232.104h-7.216V221h-2.771v-3.951
			h2.771v-11.053h7.494c9.133,0,13.764,4.289,13.764,12.744c0,4.018-1.296,7.291-3.852,9.725
			C368.733,230.88,365.305,232.104,361.091,232.104z M355.142,230.837h5.949c3.878,0,7.013-1.108,9.317-3.293
			c2.293-2.185,3.458-5.147,3.458-8.807c0-7.722-4.087-11.477-12.497-11.477h-6.228v11.054h-2.771v1.417h2.771V230.837z
			 M361.126,229.471h-4.34v-9.738h5.821v-1.417h-5.821v-9.688h4.514c7.156,0,10.785,3.427,10.785,10.179
			c0,3.364-0.979,6.012-2.915,7.872C367.244,228.531,364.538,229.471,361.126,229.471z M358.052,228.203h3.074
			c3.073,0,5.483-0.82,7.165-2.438c1.677-1.612,2.526-3.952,2.526-6.958c0-5.996-3.113-8.911-9.519-8.911h-3.247v7.152h5.821V221
			h-5.821V228.203z" class="bvCZqFuZ_52"></path>
	</g>
	<g>
		<path fill="none" stroke="#706F70" stroke-width="0.5" stroke-miterlimit="10" d="M400.217,221.423
			c0,6.977-3.147,10.463-9.44,10.463c-6.028,0-9.043-3.354-9.043-10.064V206.63h2.91v15c0,5.094,2.148,7.64,6.444,7.64
			c4.146,0,6.22-2.459,6.22-7.379V206.63h2.91L400.217,221.423L400.217,221.423z" class="bvCZqFuZ_53"></path>
		<path fill="none" stroke="#706F70" stroke-width="0.5" stroke-miterlimit="10" d="M390.776,232.519
			c-6.421,0-9.677-3.6-9.677-10.697v-15.826h4.178v15.635c0,4.715,1.899,7.006,5.811,7.006c3.812,0,5.586-2.143,5.586-6.745v-15.896
			h4.177v15.428C400.85,228.787,397.46,232.519,390.776,232.519z M382.367,207.263v14.559c0,6.348,2.75,9.432,8.409,9.432
			c5.927,0,8.808-3.215,8.808-9.83v-14.159h-1.644v14.628c0,6.622-3.727,8.014-6.854,8.014c-3.229,0-7.078-1.438-7.078-8.273
			v-14.367h-1.642V207.263z" class="bvCZqFuZ_54"></path>
	</g>
	<g>
		<path fill="none" stroke="#706F70" stroke-width="0.5" stroke-miterlimit="10" d="M426.367,231.471h-4.054l-9.598-11.365
			c-0.357-0.426-0.578-0.715-0.657-0.864h-0.069v12.229h-2.91V206.63h2.91v11.675h0.069c0.16-0.255,0.381-0.536,0.657-0.849
			l9.285-10.826h3.621l-10.654,11.916L426.367,231.471z" class="bvCZqFuZ_55"></path>
		<path fill="none" stroke="#706F70" stroke-width="0.5" stroke-miterlimit="10" d="M427.771,232.104h-5.753l-9.396-11.126v11.126
			h-4.178v-26.108h4.178v10.598l9.088-10.598h5.326l-11.222,12.555L427.771,232.104z M422.608,230.837h2.354l-10.842-12.293
			l10.085-11.281h-1.914l-9.094,10.605c-0.265,0.295-0.464,0.555-0.605,0.774l-0.091,0.146l0.115,0.153
			c0.021,0.04,0.125,0.21,0.584,0.759L422.608,230.837z M409.712,230.837h1.645v-23.574h-1.645V230.837z" class="bvCZqFuZ_56"></path>
	</g>
	<g>
		<path fill="none" stroke="#706F70" stroke-width="0.5" stroke-miterlimit="10" d="M437.654,206.63v2.494h-2.427v19.852h2.427
			v2.495h-7.762v-2.495h2.426v-19.852h-2.426v-2.494H437.654z" class="bvCZqFuZ_57"></path>
		<path fill="none" stroke="#706F70" stroke-width="0.5" stroke-miterlimit="10" d="M438.289,232.104h-9.028v-3.761h2.425v-18.586
			h-2.425v-3.762h9.028v3.762h-2.427v18.586h2.427V232.104z M430.528,230.837h6.491v-1.229h-2.425V208.49h2.425v-1.228h-6.491v1.228
			h2.425v21.119h-2.425V230.837z" class="bvCZqFuZ_58"></path>
	</g>
	<g>
		<path fill="none" stroke="#706F70" stroke-width="0.5" stroke-miterlimit="10" d="M461.327,230.432
			c-1.837,0.969-4.123,1.454-6.859,1.454c-3.534,0-6.362-1.137-8.486-3.413c-2.126-2.272-3.188-5.261-3.188-8.955
			c0-3.972,1.195-7.183,3.585-9.632c2.392-2.448,5.422-3.672,9.095-3.672c2.357,0,4.31,0.342,5.855,1.021v3.101
			c-1.777-0.992-3.741-1.488-5.891-1.488c-2.852,0-5.164,0.953-6.937,2.857c-1.774,1.905-2.66,4.451-2.66,7.641
			c0,3.025,0.828,5.438,2.486,7.232c1.656,1.795,3.831,2.691,6.521,2.691c2.495,0,4.654-0.555,6.479-1.662V230.432L461.327,230.432z
			 M458.365,198.662l-4.539,5.682h-2.199l3.862-5.682H458.365z" class="bvCZqFuZ_59"></path>
		<path fill="none" stroke="#706F70" stroke-width="0.5" stroke-miterlimit="10" d="M454.467,232.519
			c-3.7,0-6.712-1.215-8.951-3.611c-2.229-2.387-3.357-5.545-3.357-9.39c0-4.125,1.267-7.515,3.768-10.073
			c2.502-2.564,5.714-3.863,9.546-3.863c2.436,0,4.489,0.36,6.11,1.074l0.379,0.168v4.592l-0.942-0.525
			c-1.675-0.936-3.554-1.41-5.58-1.41c-2.694,0-4.812,0.869-6.474,2.657c-1.651,1.774-2.49,4.198-2.49,7.208
			c0,2.847,0.78,5.136,2.318,6.802c1.546,1.677,3.526,2.49,6.056,2.49c2.366,0,4.436-0.528,6.149-1.572l0.963-0.583v4.332
			l-0.337,0.18C459.703,232.003,457.295,232.519,454.467,232.519z M455.471,206.847c-3.478,0-6.386,1.172-8.641,3.48
			c-2.26,2.314-3.406,5.407-3.406,9.189c0,3.514,1.017,6.381,3.019,8.521c2.019,2.162,4.644,3.213,8.024,3.213
			c2.453,0,4.545-0.406,6.227-1.211v-1.371c-1.705,0.818-3.666,1.232-5.846,1.232c-2.862,0-5.213-0.975-6.985-2.896
			c-1.764-1.906-2.654-4.484-2.654-7.662c0-3.338,0.952-6.055,2.829-8.07c1.889-2.029,4.377-3.061,7.4-3.061
			c1.876,0,3.639,0.367,5.256,1.096v-1.648C459.292,207.121,457.539,206.847,455.471,206.847z M454.131,204.976h-3.702l4.725-6.949
			h4.527L454.131,204.976z M452.823,203.708h0.699l3.524-4.414h-1.223L452.823,203.708z" class="bvCZqFuZ_60"></path>
	</g>
</g>
<g>
	<path fill="#B1B0B1" d="M286.359,311.492h-3.217l-3.86-6.467c-0.354-0.6-0.697-1.111-1.029-1.535
		c-0.332-0.425-0.673-0.771-1.022-1.037c-0.348-0.27-0.724-0.465-1.126-0.588s-0.854-0.186-1.358-0.186h-2.22v9.813h-2.703v-23.064
		h6.885c1.007,0,1.938,0.125,2.791,0.375c0.853,0.254,1.592,0.638,2.22,1.152c0.627,0.514,1.118,1.154,1.472,1.922
		c0.354,0.767,0.531,1.664,0.531,2.693c0,0.805-0.121,1.542-0.362,2.213c-0.242,0.67-0.584,1.268-1.029,1.793
		c-0.445,0.524-0.981,0.973-1.609,1.344c-0.627,0.369-1.333,0.656-2.115,0.86v0.063c0.386,0.172,0.721,0.367,1.005,0.587
		c0.284,0.221,0.555,0.481,0.812,0.78c0.257,0.299,0.512,0.641,0.764,1.021s0.533,0.82,0.845,1.327L286.359,311.492z
		 M272.526,290.871v8.364h3.667c0.676,0,1.301-0.103,1.875-0.305c0.573-0.203,1.069-0.497,1.488-0.878
		c0.417-0.381,0.745-0.848,0.981-1.4c0.235-0.552,0.354-1.17,0.354-1.857c0-1.232-0.4-2.195-1.199-2.885
		c-0.799-0.693-1.954-1.039-3.466-1.039H272.526L272.526,290.871z" class="bvCZqFuZ_61"></path>
	<path fill="#B1B0B1" d="M301.753,311.492h-12.226v-23.064h11.711v2.443h-9.008v7.672h8.332v2.43h-8.332v8.074h9.522
		L301.753,311.492L301.753,311.492z" class="bvCZqFuZ_62"></path>
	<path fill="#B1B0B1" d="M308.895,302.773v8.719h-2.701v-23.064h6.337c2.466,0,4.377,0.6,5.733,1.8
		c1.357,1.202,2.035,2.896,2.035,5.083c0,2.189-0.754,3.979-2.26,5.373c-1.506,1.396-3.542,2.091-6.104,2.091L308.895,302.773
		L308.895,302.773z M308.895,290.871v9.459h2.831c1.866,0,3.29-0.427,4.271-1.277c0.98-0.855,1.472-2.057,1.472-3.612
		c0-3.046-1.801-4.567-5.403-4.567h-3.171V290.871z" class="bvCZqFuZ_63"></path>
	<path fill="#B1B0B1" d="M341.516,302.164c0,6.478-2.921,9.715-8.767,9.715c-5.597,0-8.396-3.115-8.396-9.346v-14.105h2.702v13.929
		c0,4.729,1.995,7.095,5.984,7.095c3.85,0,5.775-2.285,5.775-6.854v-14.17h2.701V302.164z" class="bvCZqFuZ_64"></path>
	<path fill="#B1B0B1" d="M347.274,311.492v-23.064h6.563c1.995,0,3.576,0.486,4.745,1.462s1.753,2.248,1.753,3.813
		c0,1.307-0.354,2.443-1.062,3.408c-0.709,0.967-1.684,1.652-2.928,2.061v0.063c1.555,0.183,2.799,0.771,3.731,1.761
		c0.933,0.992,1.398,2.281,1.398,3.869c0,1.975-0.708,3.571-2.123,4.795c-1.416,1.221-3.2,1.832-5.356,1.832H347.274
		L347.274,311.492z M349.977,290.871v7.447h2.768c1.479,0,2.644-0.355,3.491-1.068c0.847-0.713,1.271-1.721,1.271-3.018
		c0-2.242-1.475-3.361-4.424-3.361H349.977z M349.977,300.748v8.299h3.667c1.587,0,2.817-0.375,3.691-1.125s1.312-1.78,1.312-3.088
		c0-2.724-1.855-4.086-5.565-4.086H349.977z" class="bvCZqFuZ_65"></path>
	<path fill="#B1B0B1" d="M378.126,311.492h-11.968v-23.064h2.702v20.619h9.266V311.492z" class="bvCZqFuZ_66"></path>
	<path fill="#B1B0B1" d="M386.62,288.427v2.314h-2.252v18.434h2.252v2.316h-7.206v-2.316h2.252v-18.434h-2.252v-2.314H386.62z" class="bvCZqFuZ_67"></path>
	<path fill="#B1B0B1" d="M406.486,311.492h-3.765l-8.913-10.552c-0.332-0.397-0.535-0.664-0.61-0.806h-0.063v11.357h-2.703v-23.066
		h2.703v10.842h0.063c0.15-0.234,0.354-0.499,0.61-0.789l8.623-10.053h3.36l-9.891,11.066L406.486,311.492z" class="bvCZqFuZ_68"></path>
	<path fill="#B1B0B1" d="M427.396,311.492h-2.991l-2.444-6.467h-9.78l-2.302,6.467h-3.007l8.847-23.064h2.799L427.396,311.492z
		 M421.073,302.597l-3.617-9.829c-0.119-0.32-0.236-0.835-0.354-1.543h-0.063c-0.108,0.653-0.232,1.169-0.373,1.543l-3.585,9.829
		H421.073z" class="bvCZqFuZ_69"></path>
	<path fill="#B1B0B1" d="M438.736,310.559v-3.185c0.364,0.321,0.801,0.61,1.312,0.867c0.509,0.258,1.045,0.477,1.607,0.652
		c0.563,0.178,1.129,0.314,1.697,0.41c0.567,0.097,1.096,0.145,1.576,0.145c1.662,0,2.903-0.307,3.725-0.923
		c0.82-0.616,1.229-1.506,1.229-2.663c0-0.623-0.137-1.164-0.409-1.625c-0.274-0.46-0.65-0.883-1.135-1.263
		c-0.481-0.382-1.055-0.746-1.714-1.095c-0.659-0.35-1.369-0.717-2.131-1.102c-0.805-0.406-1.557-0.82-2.252-1.238
		c-0.697-0.42-1.303-0.879-1.817-1.383c-0.515-0.506-0.921-1.076-1.215-1.714s-0.442-1.386-0.442-2.245
		c0-1.052,0.231-1.965,0.692-2.742c0.461-0.776,1.066-1.416,1.816-1.92c0.752-0.506,1.604-0.882,2.565-1.127
		c0.961-0.248,1.938-0.371,2.936-0.371c2.272,0,3.932,0.273,4.972,0.819v3.042c-1.362-0.943-3.111-1.417-5.243-1.417
		c-0.591,0-1.181,0.063-1.77,0.187c-0.592,0.123-1.116,0.324-1.576,0.603c-0.461,0.28-0.838,0.64-1.127,1.078
		c-0.29,0.438-0.437,0.976-0.437,1.608c0,0.59,0.111,1.101,0.331,1.526c0.22,0.429,0.545,0.822,0.975,1.175
		c0.428,0.354,0.949,0.697,1.566,1.029c0.617,0.334,1.327,0.697,2.132,1.096c0.826,0.406,1.608,0.836,2.351,1.286
		c0.739,0.45,1.388,0.947,1.943,1.495c0.56,0.548,1,1.152,1.327,1.818c0.329,0.664,0.491,1.426,0.491,2.283
		c0,1.138-0.222,2.1-0.667,2.889c-0.446,0.787-1.047,1.428-1.802,1.922c-0.757,0.492-1.628,0.85-2.614,1.07
		c-0.986,0.219-2.026,0.328-3.119,0.328c-0.366,0-0.815-0.029-1.352-0.09c-0.538-0.058-1.084-0.145-1.643-0.258
		c-0.558-0.111-1.086-0.251-1.584-0.417C439.435,310.949,439.037,310.764,438.736,310.559z" class="bvCZqFuZ_70"></path>
	<path fill="#B1B0B1" d="M473.851,311.492h-3.217l-3.859-6.467c-0.354-0.6-0.698-1.111-1.029-1.535
		c-0.334-0.425-0.673-0.771-1.022-1.037c-0.35-0.27-0.724-0.465-1.126-0.588c-0.401-0.123-0.854-0.186-1.358-0.186h-2.221v9.813
		h-2.7v-23.064h6.884c1.007,0,1.938,0.125,2.79,0.375c0.853,0.254,1.592,0.638,2.219,1.152c0.629,0.514,1.118,1.154,1.473,1.922
		c0.354,0.767,0.531,1.664,0.531,2.693c0,0.805-0.12,1.542-0.362,2.213c-0.24,0.67-0.584,1.268-1.028,1.793
		c-0.444,0.524-0.981,0.973-1.608,1.344c-0.627,0.369-1.333,0.656-2.113,0.86v0.063c0.386,0.172,0.721,0.367,1.004,0.587
		c0.285,0.221,0.555,0.481,0.813,0.78c0.257,0.299,0.512,0.641,0.765,1.021s0.533,0.82,0.844,1.327L473.851,311.492z
		 M460.017,290.871v8.364h3.668c0.677,0,1.3-0.103,1.873-0.305c0.574-0.203,1.069-0.497,1.487-0.878
		c0.419-0.381,0.747-0.848,0.982-1.4c0.234-0.552,0.354-1.17,0.354-1.857c0-1.232-0.4-2.195-1.199-2.885
		c-0.799-0.693-1.953-1.039-3.466-1.039H460.017L460.017,290.871z" class="bvCZqFuZ_71"></path>
	<path fill="#B1B0B1" d="M477.019,311.492v-23.064h6.563c1.995,0,3.578,0.486,4.747,1.462c1.168,0.976,1.752,2.248,1.752,3.813
		c0,1.307-0.354,2.443-1.063,3.408c-0.707,0.967-1.683,1.652-2.928,2.061v0.063c1.557,0.183,2.8,0.771,3.731,1.761
		c0.934,0.992,1.4,2.281,1.4,3.869c0,1.975-0.708,3.571-2.123,4.795c-1.417,1.221-3.201,1.832-5.356,1.832H477.019L477.019,311.492z
		 M479.72,290.871v7.447h2.768c1.48,0,2.645-0.355,3.491-1.068c0.849-0.713,1.271-1.721,1.271-3.018
		c0-2.242-1.475-3.361-4.422-3.361H479.72z M479.72,300.748v8.299h3.669c1.588,0,2.819-0.375,3.692-1.125s1.311-1.78,1.311-3.088
		c0-2.724-1.854-4.086-5.563-4.086H479.72z" class="bvCZqFuZ_72"></path>
	<path fill="#B1B0B1" d="M500.857,288.427v2.314h-2.252v18.434h2.252v2.316h-7.206v-2.316h2.252v-18.434h-2.252v-2.314H500.857z" class="bvCZqFuZ_73"></path>
	<path fill="#B1B0B1" d="M510.573,303.224c0,2.734-0.579,4.859-1.736,6.379c-1.159,1.518-2.708,2.275-4.647,2.275
		c-0.901,0-1.642-0.129-2.221-0.387v-2.671c0.579,0.421,1.329,0.628,2.252,0.628c2.436,0,3.65-2.063,3.65-6.191v-14.83h2.702
		V303.224z" class="bvCZqFuZ_74"></path>
	<path fill="#B1B0B1" d="M534.282,311.492h-2.991l-2.444-6.467h-9.779l-2.3,6.467h-3.009l8.847-23.064h2.799L534.282,311.492z
		 M527.962,302.597l-3.621-9.829c-0.116-0.32-0.234-0.835-0.354-1.543h-0.063c-0.105,0.653-0.229,1.169-0.37,1.543l-3.587,9.829
		H527.962z" class="bvCZqFuZ_75"></path>
</g>
<g>
	<path fill="none" stroke="#B0B1B1" stroke-width="3" stroke-miterlimit="10" d="M67.682,180.724
		c0-11.749,9.524-21.272,21.272-21.272s21.273,9.523,21.273,21.272c0,11.748-9.525,21.271-21.273,21.271
		C77.207,201.998,67.682,192.472,67.682,180.724L67.682,180.724" class="bvCZqFuZ_76"></path>
	<path fill="none" stroke="#B0B1B1" stroke-miterlimit="10" d="M80.786,180.724c-0.003-4.512,3.652-8.171,8.163-8.174
		c4.511-0.003,8.171,3.651,8.174,8.162c0,0.004,0,0.008,0,0.012c0.004,4.511-3.651,8.171-8.163,8.173
		c-4.511,0.003-8.17-3.651-8.174-8.163C80.786,180.731,80.786,180.728,80.786,180.724" class="bvCZqFuZ_77"></path>
</g>
<g>
	<path fill="none" stroke="#B0B1B1" stroke-width="3" stroke-miterlimit="10" d="M677.523,180.724
		c0-11.749,9.522-21.272,21.271-21.272c11.748,0,21.271,9.523,21.271,21.272c0,11.748-9.523,21.271-21.271,21.271
		C687.046,201.998,677.523,192.472,677.523,180.724L677.523,180.724" class="bvCZqFuZ_78"></path>
	<path fill="none" stroke="#B0B1B1" stroke-miterlimit="10" d="M690.626,180.724c-0.005-4.512,3.651-8.171,8.163-8.174
		s8.169,3.651,8.175,8.162c0,0.004,0,0.008,0,0.012c0.002,4.511-3.651,8.171-8.164,8.173c-4.511,0.003-8.171-3.651-8.174-8.163
		C690.626,180.731,690.626,180.728,690.626,180.724" class="bvCZqFuZ_79"></path>
</g>
<style>.bvCZqFuZ_0{stroke-dasharray:2317 2319;stroke-dashoffset:2318;animation:bvCZqFuZ_draw 2200ms linear 0ms forwards;}.bvCZqFuZ_1{stroke-dasharray:2019 2021;stroke-dashoffset:2020;animation:bvCZqFuZ_draw 2200ms linear 0ms forwards;}.bvCZqFuZ_2{stroke-dasharray:130 132;stroke-dashoffset:131;animation:bvCZqFuZ_draw 2200ms linear 0ms forwards;}.bvCZqFuZ_3{stroke-dasharray:106 108;stroke-dashoffset:107;animation:bvCZqFuZ_draw 2200ms linear 0ms forwards;}.bvCZqFuZ_4{stroke-dasharray:130 132;stroke-dashoffset:131;animation:bvCZqFuZ_draw 2200ms linear 0ms forwards;}.bvCZqFuZ_5{stroke-dasharray:128 130;stroke-dashoffset:129;animation:bvCZqFuZ_draw 2200ms linear 0ms forwards;}.bvCZqFuZ_6{stroke-dasharray:124 126;stroke-dashoffset:125;animation:bvCZqFuZ_draw 2200ms linear 0ms forwards;}.bvCZqFuZ_7{stroke-dasharray:114 116;stroke-dashoffset:115;animation:bvCZqFuZ_draw 2200ms linear 0ms forwards;}.bvCZqFuZ_8{stroke-dasharray:130 132;stroke-dashoffset:131;animation:bvCZqFuZ_draw 2200ms linear 0ms forwards;}.bvCZqFuZ_9{stroke-dasharray:123 125;stroke-dashoffset:124;animation:bvCZqFuZ_draw 2200ms linear 0ms forwards;}.bvCZqFuZ_10{stroke-dasharray:243 245;stroke-dashoffset:244;animation:bvCZqFuZ_draw 2200ms linear 0ms forwards;}.bvCZqFuZ_11{stroke-dasharray:140 142;stroke-dashoffset:141;animation:bvCZqFuZ_draw 2200ms linear 0ms forwards;}.bvCZqFuZ_12{stroke-dasharray:279 281;stroke-dashoffset:280;animation:bvCZqFuZ_draw 2200ms linear 0ms forwards;}.bvCZqFuZ_13{stroke-dasharray:109 111;stroke-dashoffset:110;animation:bvCZqFuZ_draw 2200ms linear 0ms forwards;}.bvCZqFuZ_14{stroke-dasharray:215 217;stroke-dashoffset:216;animation:bvCZqFuZ_draw 2200ms linear 0ms forwards;}.bvCZqFuZ_15{stroke-dasharray:140 142;stroke-dashoffset:141;animation:bvCZqFuZ_draw 2200ms linear 0ms forwards;}.bvCZqFuZ_16{stroke-dasharray:279 281;stroke-dashoffset:280;animation:bvCZqFuZ_draw 2200ms linear 0ms forwards;}.bvCZqFuZ_17{stroke-dasharray:127 129;stroke-dashoffset:128;animation:bvCZqFuZ_draw 2200ms linear 0ms forwards;}.bvCZqFuZ_18{stroke-dasharray:248 250;stroke-dashoffset:249;animation:bvCZqFuZ_draw 2200ms linear 0ms forwards;}.bvCZqFuZ_19{stroke-dasharray:123 125;stroke-dashoffset:124;animation:bvCZqFuZ_draw 2200ms linear 0ms forwards;}.bvCZqFuZ_20{stroke-dasharray:243 245;stroke-dashoffset:244;animation:bvCZqFuZ_draw 2200ms linear 0ms forwards;}.bvCZqFuZ_21{stroke-dasharray:85 87;stroke-dashoffset:86;animation:bvCZqFuZ_draw 2200ms linear 0ms forwards;}.bvCZqFuZ_22{stroke-dasharray:169 171;stroke-dashoffset:170;animation:bvCZqFuZ_draw 2200ms linear 0ms forwards;}.bvCZqFuZ_23{stroke-dasharray:109 111;stroke-dashoffset:110;animation:bvCZqFuZ_draw 2200ms linear 0ms forwards;}.bvCZqFuZ_24{stroke-dasharray:217 219;stroke-dashoffset:218;animation:bvCZqFuZ_draw 2200ms linear 0ms forwards;}.bvCZqFuZ_25{stroke-dasharray:127 129;stroke-dashoffset:128;animation:bvCZqFuZ_draw 2200ms linear 0ms forwards;}.bvCZqFuZ_26{stroke-dasharray:248 250;stroke-dashoffset:249;animation:bvCZqFuZ_draw 2200ms linear 0ms forwards;}.bvCZqFuZ_27{stroke-dasharray:123 125;stroke-dashoffset:124;animation:bvCZqFuZ_draw 2200ms linear 0ms forwards;}.bvCZqFuZ_28{stroke-dasharray:243 245;stroke-dashoffset:244;animation:bvCZqFuZ_draw 2200ms linear 0ms forwards;}.bvCZqFuZ_29{stroke-dasharray:127 129;stroke-dashoffset:128;animation:bvCZqFuZ_draw 2200ms linear 0ms forwards;}.bvCZqFuZ_30{stroke-dasharray:248 250;stroke-dashoffset:249;animation:bvCZqFuZ_draw 2200ms linear 0ms forwards;}.bvCZqFuZ_31{stroke-dasharray:123 125;stroke-dashoffset:124;animation:bvCZqFuZ_draw 2200ms linear 0ms forwards;}.bvCZqFuZ_32{stroke-dasharray:243 245;stroke-dashoffset:244;animation:bvCZqFuZ_draw 2200ms linear 0ms forwards;}.bvCZqFuZ_33{stroke-dasharray:156 158;stroke-dashoffset:157;animation:bvCZqFuZ_draw 2200ms linear 0ms forwards;}.bvCZqFuZ_34{stroke-dasharray:306 308;stroke-dashoffset:307;animation:bvCZqFuZ_draw 2200ms linear 0ms forwards;}.bvCZqFuZ_35{stroke-dasharray:103 105;stroke-dashoffset:104;animation:bvCZqFuZ_draw 2200ms linear 0ms forwards;}.bvCZqFuZ_36{stroke-dasharray:206 208;stroke-dashoffset:207;animation:bvCZqFuZ_draw 2200ms linear 0ms forwards;}.bvCZqFuZ_37{stroke-dasharray:114 116;stroke-dashoffset:115;animation:bvCZqFuZ_draw 2200ms linear 0ms forwards;}.bvCZqFuZ_38{stroke-dasharray:227 229;stroke-dashoffset:228;animation:bvCZqFuZ_draw 2200ms linear 0ms forwards;}.bvCZqFuZ_39{stroke-dasharray:76 78;stroke-dashoffset:77;animation:bvCZqFuZ_draw 2200ms linear 0ms forwards;}.bvCZqFuZ_40{stroke-dasharray:151 153;stroke-dashoffset:152;animation:bvCZqFuZ_draw 2200ms linear 0ms forwards;}.bvCZqFuZ_41{stroke-dasharray:123 125;stroke-dashoffset:124;animation:bvCZqFuZ_draw 2200ms linear 0ms forwards;}.bvCZqFuZ_42{stroke-dasharray:243 245;stroke-dashoffset:244;animation:bvCZqFuZ_draw 2200ms linear 0ms forwards;}.bvCZqFuZ_43{stroke-dasharray:134 136;stroke-dashoffset:135;animation:bvCZqFuZ_draw 2200ms linear 0ms forwards;}.bvCZqFuZ_44{stroke-dasharray:266 268;stroke-dashoffset:267;animation:bvCZqFuZ_draw 2200ms linear 0ms forwards;}.bvCZqFuZ_45{stroke-dasharray:75 77;stroke-dashoffset:76;animation:bvCZqFuZ_draw 2200ms linear 0ms forwards;}.bvCZqFuZ_46{stroke-dasharray:150 152;stroke-dashoffset:151;animation:bvCZqFuZ_draw 2200ms linear 0ms forwards;}.bvCZqFuZ_47{stroke-dasharray:65 67;stroke-dashoffset:66;animation:bvCZqFuZ_draw 2200ms linear 0ms forwards;}.bvCZqFuZ_48{stroke-dasharray:130 132;stroke-dashoffset:131;animation:bvCZqFuZ_draw 2200ms linear 0ms forwards;}.bvCZqFuZ_49{stroke-dasharray:123 125;stroke-dashoffset:124;animation:bvCZqFuZ_draw 2200ms linear 0ms forwards;}.bvCZqFuZ_50{stroke-dasharray:243 245;stroke-dashoffset:244;animation:bvCZqFuZ_draw 2200ms linear 0ms forwards;}.bvCZqFuZ_51{stroke-dasharray:157 159;stroke-dashoffset:158;animation:bvCZqFuZ_draw 2200ms linear 0ms forwards;}.bvCZqFuZ_52{stroke-dasharray:313 315;stroke-dashoffset:314;animation:bvCZqFuZ_draw 2200ms linear 0ms forwards;}.bvCZqFuZ_53{stroke-dasharray:121 123;stroke-dashoffset:122;animation:bvCZqFuZ_draw 2200ms linear 0ms forwards;}.bvCZqFuZ_54{stroke-dasharray:241 243;stroke-dashoffset:242;animation:bvCZqFuZ_draw 2200ms linear 0ms forwards;}.bvCZqFuZ_55{stroke-dasharray:127 129;stroke-dashoffset:128;animation:bvCZqFuZ_draw 2200ms linear 0ms forwards;}.bvCZqFuZ_56{stroke-dasharray:248 250;stroke-dashoffset:249;animation:bvCZqFuZ_draw 2200ms linear 0ms forwards;}.bvCZqFuZ_57{stroke-dasharray:75 77;stroke-dashoffset:76;animation:bvCZqFuZ_draw 2200ms linear 0ms forwards;}.bvCZqFuZ_58{stroke-dasharray:150 152;stroke-dashoffset:151;animation:bvCZqFuZ_draw 2200ms linear 0ms forwards;}.bvCZqFuZ_59{stroke-dasharray:123 125;stroke-dashoffset:124;animation:bvCZqFuZ_draw 2200ms linear 0ms forwards;}.bvCZqFuZ_60{stroke-dasharray:245 247;stroke-dashoffset:246;animation:bvCZqFuZ_draw 2200ms linear 0ms forwards;}.bvCZqFuZ_61{stroke-dasharray:124 126;stroke-dashoffset:125;animation:bvCZqFuZ_draw 2200ms linear 0ms forwards;}.bvCZqFuZ_62{stroke-dasharray:106 108;stroke-dashoffset:107;animation:bvCZqFuZ_draw 2200ms linear 0ms forwards;}.bvCZqFuZ_63{stroke-dasharray:101 103;stroke-dashoffset:102;animation:bvCZqFuZ_draw 2200ms linear 0ms forwards;}.bvCZqFuZ_64{stroke-dasharray:112 114;stroke-dashoffset:113;animation:bvCZqFuZ_draw 2200ms linear 0ms forwards;}.bvCZqFuZ_65{stroke-dasharray:130 132;stroke-dashoffset:131;animation:bvCZqFuZ_draw 2200ms linear 0ms forwards;}.bvCZqFuZ_66{stroke-dasharray:71 73;stroke-dashoffset:72;animation:bvCZqFuZ_draw 2200ms linear 0ms forwards;}.bvCZqFuZ_67{stroke-dasharray:70 72;stroke-dashoffset:71;animation:bvCZqFuZ_draw 2200ms linear 0ms forwards;}.bvCZqFuZ_68{stroke-dasharray:118 120;stroke-dashoffset:119;animation:bvCZqFuZ_draw 2200ms linear 0ms forwards;}.bvCZqFuZ_69{stroke-dasharray:114 116;stroke-dashoffset:115;animation:bvCZqFuZ_draw 2200ms linear 0ms forwards;}.bvCZqFuZ_70{stroke-dasharray:101 103;stroke-dashoffset:102;animation:bvCZqFuZ_draw 2200ms linear 0ms forwards;}.bvCZqFuZ_71{stroke-dasharray:124 126;stroke-dashoffset:125;animation:bvCZqFuZ_draw 2200ms linear 0ms forwards;}.bvCZqFuZ_72{stroke-dasharray:130 132;stroke-dashoffset:131;animation:bvCZqFuZ_draw 2200ms linear 0ms forwards;}.bvCZqFuZ_73{stroke-dasharray:70 72;stroke-dashoffset:71;animation:bvCZqFuZ_draw 2200ms linear 0ms forwards;}.bvCZqFuZ_74{stroke-dasharray:60 62;stroke-dashoffset:61;animation:bvCZqFuZ_draw 2200ms linear 0ms forwards;}.bvCZqFuZ_75{stroke-dasharray:114 116;stroke-dashoffset:115;animation:bvCZqFuZ_draw 2200ms linear 0ms forwards;}.bvCZqFuZ_76{stroke-dasharray:134 136;stroke-dashoffset:135;animation:bvCZqFuZ_draw 2200ms linear 0ms forwards;}.bvCZqFuZ_77{stroke-dasharray:52 54;stroke-dashoffset:53;animation:bvCZqFuZ_draw 2200ms linear 0ms forwards;}.bvCZqFuZ_78{stroke-dasharray:134 136;stroke-dashoffset:135;animation:bvCZqFuZ_draw 2200ms linear 0ms forwards;}.bvCZqFuZ_79{stroke-dasharray:52 54;stroke-dashoffset:53;animation:bvCZqFuZ_draw 2200ms linear 0ms forwards;}@keyframes bvCZqFuZ_draw{100%{stroke-dashoffset:0;}}@keyframes bvCZqFuZ_fade{0%{stroke-opacity:1;}93.75%{stroke-opacity:1;}100%{stroke-opacity:0;}}</style></svg>
